<?xml version="1.0" encoding="iso-8859-1"?>
<!-- Uploaded to: SVG Repo, www.svgrepo.com, Generator: SVG Repo Mixer Tools -->
<svg version="1.1" id="house" xmlns="http://www.w3.org/2000/svg" xmlns:xlink="http://www.w3.org/1999/xlink" 
	 viewBox="0 0 512 512" xml:space="preserve">
<path style="fill:#9A8984;" d="M294.4,405.231v-102.4h-51.2v102.4H64V231.509l140.8-120.678l140.8,120.678v173.722H294.4z
	 M192,354.031v-51.2h-76.8v51.2H192z"/>
<rect x="345.6" y="251.631" style="fill:#BCB0AD;" width="102.4" height="153.6"/>
<polygon style="fill:#BF655F;" points="64,174.831 130.133,174.831 64,231.526 "/>
<rect x="115.2" y="302.831" style="fill:#A9D0D3;" width="76.8" height="51.2"/>
<rect x="243.2" y="302.831" style="fill:#FEDEA1;" width="51.2" height="102.4"/>
<polygon  points="369.058,251.631 279.467,174.831 473.6,174.831 473.6,251.631 "/>
<g>
	<path d="M499.2,392.431h-38.4v-128h25.6v-102.4H284.203L204.8,93.969l-79.403,68.062H51.2v63.607
		L17.271,254.72l16.649,19.422l17.28-14.805v133.094H12.8c-7.074,0-12.8,5.726-12.8,12.8s5.726,12.8,12.8,12.8h486.4
		c7.074,0,12.8-5.726,12.8-12.8S506.274,392.431,499.2,392.431z M460.8,187.631v51.2h-87.006l-59.725-51.2H460.8z M76.8,187.631
		h18.739L76.8,203.691V187.631z M281.6,392.431H256v-76.8h25.6V392.431z M332.8,392.431h-25.6v-102.4h-76.8v102.4H76.8V237.397
		l128-109.705l128,109.705V392.431z M435.2,392.431h-76.8v-128h76.8V392.431z"/>
	<path  d="M102.4,366.831h102.4v-76.8H102.4V366.831z M128,315.631h51.2v25.6H128V315.631z"/>
	<rect x="179.2" y="187.631"  width="51.2" height="25.6"/>
</g>
</svg>